<svg version="1.1" viewBox="0.0 0.0 788.5328083989501 596.7375328083989" fill="none" stroke="none" stroke-linecap="square" stroke-miterlimit="10" xmlns:xlink="http://www.w3.org/1999/xlink" xmlns="http://www.w3.org/2000/svg"><clipPath id="p.0"><path d="m0 0l788.53284 0l0 596.73755l-788.53284 0l0 -596.73755z" clip-rule="nonzero"/></clipPath><g clip-path="url(#p.0)"><path fill="#000000" fill-opacity="0.0" d="m0 0l788.53284 0l0 596.73755l-788.53284 0z" fill-rule="evenodd"/><path fill="#000000" fill-opacity="0.0" d="m222.75607 222.7079l0 0" fill-rule="evenodd"/><path stroke="#0037a5" stroke-width="8.0" stroke-linejoin="round" stroke-linecap="butt" d="m222.75607 222.7079l0 0" fill-rule="evenodd"/><path fill="#000000" fill-opacity="0.0" d="m507.84464 461.9826l-150.40363 -75.20184l0 -178.29295l150.40363 -75.20184l150.40366 75.20184l0 178.29295z" fill-rule="evenodd"/><path stroke="#08aeea" stroke-width="16.0" stroke-linejoin="round" stroke-linecap="butt" d="m507.84464 461.9826l-150.40363 -75.20184l0 -178.29295l150.40363 -75.20184l150.40366 75.20184l0 178.29295z" fill-rule="evenodd"/><path fill="#000000" fill-opacity="0.0" d="m507.84464 133.28596l-1.2912598 -119.65859" fill-rule="evenodd"/><path stroke="#08aeea" stroke-width="16.0" stroke-linejoin="round" stroke-linecap="butt" d="m507.84464 133.28596l-1.2912598 -119.65859" fill-rule="evenodd"/><path fill="#000000" fill-opacity="0.0" d="m658.2483 208.48781l108.52197 -37.68068" fill-rule="evenodd"/><path stroke="#08aeea" stroke-width="16.0" stroke-linejoin="round" stroke-linecap="butt" d="m658.2483 208.48781l108.52197 -37.68068" fill-rule="evenodd"/><path fill="#000000" fill-opacity="0.0" d="m151.22572 265.41733l496.53546 0l0 92.0l-496.53546 0z" fill-rule="evenodd"/><path fill="#434e61" d="m188.53822 284.41107q0.890625 0 1.4375 0.59375q0.5625 0.578125 0.5625 1.5l0 24.546875q0 0.921875 -0.5 1.453125q-0.5 0.515625 -1.375 0.515625q-0.84375 0 -1.328125 -0.515625q-0.46875 -0.53125 -0.46875 -1.453125l0 -18.59375l-7.84375 14.921875q-0.75 1.390625 -1.953125 1.390625q-1.203125 0 -1.96875 -1.390625l-7.875 -14.765625l0 18.4375q0 0.921875 -0.484375 1.453125q-0.46875 0.515625 -1.359375 0.515625q-0.84375 0 -1.34375 -0.53125q-0.5 -0.546875 -0.5 -1.4375l0 -24.546875q0 -0.921875 0.5625 -1.5q0.5625 -0.59375 1.4375 -0.59375q1.25 0 2.0 1.453125l9.5625 18.265625l9.484375 -18.265625q0.765625 -1.453125 1.953125 -1.453125zm41.853714 28.71875q-4.0 0 -6.953125 -1.75q-2.9375 -1.765625 -4.546875 -5.0q-1.59375 -3.25 -1.59375 -7.640625q0 -4.4375 1.578125 -7.703125q1.59375 -3.265625 4.546875 -5.0q2.96875 -1.734375 6.96875 -1.734375q4.03125 0 6.984375 1.734375q2.96875 1.734375 4.546875 5.0q1.578125 3.265625 1.578125 7.65625q0 4.40625 -1.578125 7.671875q-1.578125 3.25 -4.546875 5.015625q-2.953125 1.75 -6.984375 1.75zm0 -3.359375q4.234375 0 6.59375 -2.875q2.359375 -2.875 2.359375 -8.203125q0 -5.3125 -2.34375 -8.171875q-2.328125 -2.859375 -6.609375 -2.859375q-4.203125 0 -6.546875 2.859375q-2.34375 2.859375 -2.34375 8.171875q0 5.328125 2.34375 8.203125q2.34375 2.875 6.546875 2.875zm41.83496 3.046875q-0.921875 0 -1.46875 -0.515625q-0.53125 -0.53125 -0.53125 -1.40625l0 -24.390625q0 -0.921875 0.5625 -1.5q0.5625 -0.59375 1.46875 -0.59375q0.96875 0 1.53125 0.5625q0.5625 0.5625 0.5625 1.53125l0 22.875l12.15625 0q0.921875 0 1.421875 0.4375q0.5 0.4375 0.5 1.28125q0 0.84375 -0.5 1.28125q-0.5 0.4375 -1.421875 0.4375l-14.28125 0zm49.796844 0.203125q-0.921875 0 -1.5 -0.578125q-0.578125 -0.578125 -0.578125 -1.5l0 -22.890625l-8.0 0q-1.921875 0 -1.921875 -1.71875q0 -0.828125 0.5 -1.265625q0.5 -0.453125 1.421875 -0.453125l20.15625 0q0.921875 0 1.421875 0.453125q0.5 0.4375 0.5 1.265625q0 1.71875 -1.921875 1.71875l-8.0 0l0 22.890625q0 0.921875 -0.5625 1.5q-0.546875 0.578125 -1.515625 0.578125zm70.234344 0q-0.90625 0 -1.46875 -0.5625q-0.5625 -0.5625 -0.5625 -1.515625l0 -24.4375q0 -0.921875 0.5625 -1.5q0.5625 -0.59375 1.46875 -0.59375q0.96875 0 1.53125 0.5625q0.5625 0.5625 0.5625 1.53125l0 24.4375q0 0.953125 -0.546875 1.515625q-0.546875 0.5625 -1.546875 0.5625zm86.47995 -28.609375q0.890625 0 1.4375 0.59375q0.5625 0.578125 0.5625 1.5l0 24.546875q0 0.921875 -0.5 1.453125q-0.5 0.515625 -1.375 0.515625q-0.84375 0 -1.328125 -0.515625q-0.46875 -0.53125 -0.46875 -1.453125l0 -18.59375l-7.84375 14.921875q-0.75 1.390625 -1.953125 1.390625q-1.203125 0 -1.96875 -1.390625l-7.875 -14.765625l0 18.4375q0 0.921875 -0.484375 1.453125q-0.46875 0.515625 -1.359375 0.515625q-0.84375 0 -1.34375 -0.53125q-0.5 -0.546875 -0.5 -1.4375l0 -24.546875q0 -0.921875 0.5625 -1.5q0.5625 -0.59375 1.4375 -0.59375q1.25 0 2.0 1.453125l9.5625 18.265625l9.484375 -18.265625q0.765625 -1.453125 1.953125 -1.453125zm54.6037 26.0q0.203125 0.484375 0.203125 0.8125q0 0.75 -0.625 1.28125q-0.609375 0.515625 -1.375 0.515625q-0.515625 0 -0.984375 -0.296875q-0.453125 -0.3125 -0.6875 -0.859375l-2.640625 -6.0l-14.640625 0l-2.640625 6.0q-0.25 0.546875 -0.734375 0.859375q-0.46875 0.296875 -0.984375 0.296875q-0.8125 0 -1.4375 -0.515625q-0.609375 -0.53125 -0.609375 -1.28125q0 -0.328125 0.203125 -0.8125l11.28125 -24.671875q0.28125 -0.640625 0.890625 -1.0q0.625 -0.359375 1.3125 -0.359375q0.671875 0 1.28125 0.359375q0.625 0.359375 0.90625 1.0l11.28125 24.671875zm-19.28125 -7.828125l11.71875 0l-5.875 -13.25l-5.84375 13.25zm53.683105 10.4375q-0.921875 0 -1.5 -0.578125q-0.578125 -0.578125 -0.578125 -1.5l0 -22.890625l-8.0 0q-1.921875 0 -1.921875 -1.71875q0 -0.828125 0.5 -1.265625q0.5 -0.453125 1.421875 -0.453125l20.15625 0q0.921875 0 1.421875 0.453125q0.5 0.4375 0.5 1.265625q0 1.71875 -1.921875 1.71875l-8.0 0l0 22.890625q0 0.921875 -0.5625 1.5q-0.546875 0.578125 -1.515625 0.578125zm38.554382 -0.203125q-0.953125 0 -1.5 -0.53125q-0.53125 -0.546875 -0.53125 -1.46875l0 -24.203125q0 -0.921875 0.53125 -1.453125q0.546875 -0.546875 1.5 -0.546875l14.734375 0q0.90625 0 1.40625 0.453125q0.5 0.4375 0.5 1.234375q0 0.796875 -0.5 1.21875q-0.5 0.421875 -1.40625 0.421875l-12.734375 0l0 8.875l11.921875 0q0.921875 0 1.421875 0.4375q0.5 0.4375 0.5 1.25q0 0.796875 -0.5 1.234375q-0.5 0.4375 -1.421875 0.4375l-11.921875 0l0 9.328125l12.734375 0q1.90625 0 1.90625 1.625q0 0.8125 -0.5 1.25q-0.5 0.4375 -1.40625 0.4375l-14.734375 0z" fill-rule="nonzero"/><path fill="#000000" fill-opacity="0.0" d="m277.01746 133.02107l150.40363 75.20186l0 178.29294l-150.40363 75.20184l-150.40363 -75.20184l0 -178.29294z" fill-rule="evenodd"/><path stroke="#2af598" stroke-width="16.0" stroke-linejoin="round" stroke-linecap="butt" d="m277.01746 133.02107l150.40363 75.20186l0 178.29294l-150.40363 75.20184l-150.40363 -75.20184l0 -178.29294z" fill-rule="evenodd"/><path fill="#000000" fill-opacity="0.0" d="m277.01746 461.7177l1.2912598 119.65863" fill-rule="evenodd"/><path stroke="#2af598" stroke-width="16.0" stroke-linejoin="round" stroke-linecap="butt" d="m277.01746 461.7177l1.2912598 119.65863" fill-rule="evenodd"/><path fill="#000000" fill-opacity="0.0" d="m126.61383 386.51587l-108.521965 37.680695" fill-rule="evenodd"/><path stroke="#2af598" stroke-width="16.0" stroke-linejoin="round" stroke-linecap="butt" d="m126.61383 386.51587l-108.521965 37.680695" fill-rule="evenodd"/></g></svg>